<?xml version="1.0" encoding="utf-8"?>
<!-- Generator: Adobe Illustrator 21.1.0, SVG Export Plug-In . SVG Version: 6.00 Build 0)  -->
<svg version="1.1" id="icon-finger" xmlns="http://www.w3.org/2000/svg" xmlns:xlink="http://www.w3.org/1999/xlink" x="0px"
	 y="0px" viewBox="0 0 30 30" style="enable-background:new 0 0 30 30;" xml:space="preserve">
<style type="text/css">
	.st0{fill:#B3DAD4;}
</style>
<g>
	<path class="st0" d="M19.7,3.6c-1.2,0-2.2,1-2.2,2.2v3.9c-0.3-0.1-0.6-0.2-0.9-0.2c-0.6,0-1.2,0.3-1.6,0.7c-0.4-0.4-1-0.7-1.6-0.7
		c-0.6,0-1.1,0.3-1.5,0.7c-0.4-0.4-1-0.7-1.6-0.7c-1.2,0-2.2,1-2.2,2.2v0.1v3.4v4.4c0,3.9,3,6.9,6.8,6.9c3.7,0,6.8-2.9,7-6.5
		c0-0.1,0-0.1,0-14.2C21.9,4.6,20.9,3.6,19.7,3.6z M16.6,10.8c0.4,0,0.7,0.3,0.9,0.6v1.7c-0.4-0.1-0.9-0.2-1.3-0.2
		c-0.2,0-0.3,0-0.5,0.1v-1.4C15.7,11.2,16.1,10.8,16.6,10.8z M13.4,10.8c0.6,0,1,0.4,0.9,0.9v2.4c-0.2,0.3-0.3,0.6-0.3,1
		c0,0.2,0,0.5,0.1,0.7c-0.2,0.2-0.4,0.3-0.7,0.3c-0.5,0-0.9-0.4-0.9-0.9v-3.5C12.5,11.2,12.9,10.8,13.4,10.8z M10.3,10.8
		c0.5,0,0.9,0.4,0.9,0.9v3.5c0,0.5-0.4,0.9-0.9,0.9s-0.9-0.4-0.9-0.9v-3.5C9.4,11.2,9.8,10.8,10.3,10.8z M20.7,19.8
		c-0.2,3-2.7,5.4-5.7,5.4c-3.2,0-5.6-2.5-5.6-5.7v-2.3c0.3,0.1,0.6,0.2,0.9,0.2c0.6,0,1.2-0.2,1.6-0.6c0.4,0.4,0.9,0.6,1.5,0.6
		c0.6,0,1-0.1,1.4-0.5c0.3,0.3,0.8,0.5,1.2,0.5h0.2c0.9,0.4,1.5,1.2,1.5,2.2c0,1.3-1.1,2.4-2.4,2.4v1.2c2,0,3.6-1.6,3.7-3.6
		c0-1.5-0.9-2.8-2.3-3.4c-0.1,0-0.1,0-0.6-0.1c-0.5,0-0.9-0.5-0.9-1s0.4-0.9,1-0.9c2.1,0,4.5,1.8,4.5,4.4
		C20.7,19.3,20.7,19.7,20.7,19.8z M18.9,13.7v-8c0-0.5,0.4-0.9,0.9-0.9s0.9,0.4,0.9,0.9c0,2.6,0,6.4,0,9.4
		C20.2,14.5,19.6,14,18.9,13.7z"/>
</g>
</svg>
