<svg xmlns="http://www.w3.org/2000/svg" viewBox="0 0 288 84.01"><defs><style>.a{fill:#231f20;}</style></defs><title>cityarts-2</title><path class="a" d="M237.89,370.88a5.6,5.6,0,1,0-5.6-5.6,5.59,5.59,0,0,0,5.6,5.6Zm-20.08,23c-3.27,12.9-13.57,18.77-22.42,18.77-12.9,0-22.62-10.87-22.62-25.12,0-14.44,9.24-24.83,22.23-24.83A22.78,22.78,0,0,1,216.08,376h8.47v-21h-8.47v6a34.48,34.48,0,0,0-21.56-7C174.89,354,162,367.47,162,387.78c0,19.82,13.38,33.68,32.72,33.68,15.78,0,27.81-8.66,31.66-22.9l-8.56-4.72ZM242.61,375H226.34v7.89h7.22v29.35h-7.22v8.18h23.48v-8.18h-7.22V375Zm72.09,7.89V375h-22v7.89h6.06L289.1,408l-9.82-25.12h5.39V375H260.84v-15.2l-9,8.18v7h-5.87v7.89h5.87v27.52c0,7.89,4.43,10.78,10.78,10.78a23.09,23.09,0,0,0,6.64-1.25v-8.08c-4.43,1.54-8.37,1.73-8.37-2.69V382.87h8.91l14.92,36.67-4.05,10.58h-9.26V438h15.19L308,382.87Zm88.55-23.1-9,8.18v7h-2.78c-5.68,0-11.45,2.6-14.34,10.2h-.19V375H360.63v7.89h9.14v29.35h-7.61l-17.61-49.85h7.7v-7.31H318.85v7.31h7.7l-17.9,49.85h-7.89v8.18h25.79v-8.18h-8l5.1-14.82h23.48L352,412.22h-8.08v8.18h44.76v-8.18h-9.82v-12.7c0-10.39,3.18-16.26,13.67-16.65h1.72v27.52c0,7.89,4.43,10.78,10.78,10.78a23.1,23.1,0,0,0,6.64-1.25v-8.08c-4.43,1.54-8.37,1.73-8.37-2.69V382.87h8.37V375h-8.37v-15.2Zm-77.18,30,9-27.43H336l8.66,27.43Zm120.08,8.08c-7.51-7.51-25-3.08-25-10.68,0-3.37,3.17-5.58,8-5.58a11.8,11.8,0,0,1,10.59,5.58V390h7.89V375H439.7v1.83a23.5,23.5,0,0,0-11.07-2.6c-9.24,0-16,5.58-16,13.38a12.45,12.45,0,0,0,3.56,8.66c8.66,8.66,24.64,3.27,24.64,11.74,0,3.46-3.66,5.68-9.34,5.68-6,0-10.1-2.79-10.87-7.31v-1.54h-8V420.4h8v-2.5c3.27,2.21,7,3.27,11.93,3.27,10.39,0,17.42-5.58,17.42-13.86a13.4,13.4,0,0,0-3.85-9.43Z" transform="translate(-162 -354)"/></svg>