<?xml version="1.0" encoding="utf-8"?>
<!-- Generator: Adobe Illustrator 21.1.0, SVG Export Plug-In . SVG Version: 6.00 Build 0)  -->
<svg version="1.1" id="Layer_1" xmlns="http://www.w3.org/2000/svg" xmlns:xlink="http://www.w3.org/1999/xlink" x="0px" y="0px"
	 viewBox="0 0 30 30" style="enable-background:new 0 0 30 30;" xml:space="preserve">
<g>
	<path d="M8.4,7C7.7,7,7,7.7,7,8.4v13.1C7,22.3,7.7,23,8.4,23h13.1c0.8,0,1.4-0.6,1.4-1.4V8.4C23,7.7,22.3,7,21.6,7H8.4L8.4,7z
		 M21.6,24H8.4C7.1,24,6,22.9,6,21.6V8.4C6,7.1,7.1,6,8.4,6h13.1C22.9,6,24,7.1,24,8.4v13.1C24,22.9,22.9,24,21.6,24L21.6,24z"/>
	<path d="M15,14.1c-0.5,0-0.9,0.4-0.9,0.9s0.4,0.9,0.9,0.9s0.9-0.4,0.9-0.9S15.5,14.1,15,14.1L15,14.1z M15,16.9
		c-1.1,0-1.9-0.9-1.9-1.9c0-1.1,0.9-1.9,1.9-1.9c1.1,0,1.9,0.9,1.9,1.9C16.9,16.1,16.1,16.9,15,16.9L15,16.9z"/>
	<path d="M19.4,18.5c-0.5,0-0.9,0.4-0.9,0.9s0.4,0.9,0.9,0.9s0.9-0.4,0.9-0.9S19.9,18.5,19.4,18.5L19.4,18.5z M19.4,21.4
		c-1.1,0-1.9-0.9-1.9-1.9c0-1.1,0.9-1.9,1.9-1.9c1.1,0,1.9,0.9,1.9,1.9C21.4,20.5,20.5,21.4,19.4,21.4L19.4,21.4z"/>
	<path d="M18.5,10.6c0,0.5,0.4,0.9,0.9,0.9s0.9-0.4,0.9-0.9s-0.4-0.9-0.9-0.9C18.9,9.7,18.5,10.1,18.5,10.6L18.5,10.6z M21.4,10.6
		c0,1.1-0.9,1.9-1.9,1.9c-1.1,0-1.9-0.9-1.9-1.9c0-1.1,0.9-1.9,1.9-1.9C20.5,8.6,21.4,9.5,21.4,10.6L21.4,10.6z"/>
	<path d="M10.6,11.5c0.5,0,0.9-0.4,0.9-0.9s-0.4-0.9-0.9-0.9s-0.9,0.4-0.9,0.9C9.7,11.1,10.1,11.5,10.6,11.5L10.6,11.5z M10.6,8.6
		c1.1,0,1.9,0.9,1.9,1.9c0,1.1-0.9,1.9-1.9,1.9c-1.1,0-1.9-0.9-1.9-1.9C8.6,9.5,9.5,8.6,10.6,8.6L10.6,8.6z"/>
	<path d="M11.5,19.4c0-0.5-0.4-0.9-0.9-0.9s-0.9,0.4-0.9,0.9s0.4,0.9,0.9,0.9S11.5,19.9,11.5,19.4L11.5,19.4z M8.6,19.4
		c0-1.1,0.9-1.9,1.9-1.9c1.1,0,1.9,0.9,1.9,1.9c0,1.1-0.9,1.9-1.9,1.9C9.5,21.4,8.6,20.5,8.6,19.4L8.6,19.4z"/>
</g>
</svg>
