<?xml version="1.0" encoding="utf-8"?>
<!-- Generator: Adobe Illustrator 21.1.0, SVG Export Plug-In . SVG Version: 6.00 Build 0)  -->
<svg version="1.1" id="icon-finger" xmlns="http://www.w3.org/2000/svg" xmlns:xlink="http://www.w3.org/1999/xlink" x="0px"
	 y="0px" viewBox="0 0 30 30" style="enable-background:new 0 0 30 30;" xml:space="preserve">
<g>
	<g>
		<path d="M9.4,11.5v8c0,3.2,2.4,5.7,5.6,5.7c3,0,5.5-2.4,5.7-5.4c0-0.3,0-9.3,0-14.1c0-0.5-0.4-0.9-0.9-0.9s-0.9,0.4-0.9,0.9V15
			l-1.4-1V5.8c0-1.2,1-2.2,2.2-2.2s2.2,1,2.2,2.2c0,14.1,0,14.1,0,14.2c-0.2,3.6-3.3,6.5-7,6.5c-3.8,0-6.8-3-6.8-6.9v-7.8
			C8.1,11.3,8.7,10.9,9.4,11.5"/>
	</g>
	<g>
		<path d="M13.4,17.4c-1.2,0-2.2-1-2.2-2.2v-3.5c0-1.2,1-2.2,2.2-2.2s2.2,1,2.2,2.2v1.9l-0.8,1.2c0,0.6,0.6,1.4,0.2,1.8
			C14.7,17.2,14.1,17.4,13.4,17.4z M13.4,10.8c-0.5,0-0.9,0.4-0.9,0.9v3.5c0,0.5,0.4,0.9,0.9,0.9s0.9-0.4,0.9-0.9v-3.5
			C14.4,11.2,14,10.8,13.4,10.8z"/>
	</g>
	<g>
		<path d="M10.3,17.4c-1.2,0-2.2-1-2.2-2.2v-3.5c0-1.2,1-2.2,2.2-2.2s2.2,1,2.2,2.2v3.5C12.5,16.5,11.5,17.4,10.3,17.4z M10.3,10.8
			c-0.5,0-0.9,0.4-0.9,0.9v3.5c0,0.5,0.4,0.9,0.9,0.9s0.9-0.4,0.9-0.9v-3.5C11.2,11.2,10.8,10.8,10.3,10.8z"/>
	</g>
	<g>
		<path d="M16.2,14c-1.2,0-1.8,1.4-1.8,0.2v-2.5c0-1.2,1-2.2,2.2-2.2s2.2,1,2.2,2.2v2.5C18.8,15.5,17.4,14,16.2,14z M16.6,10.8
			c-0.5,0-0.9,0.4-0.9,0.9v1.5c0,0.5,0.3,0.4,0.9,0.4s1,0.2,1-0.4v-1.5C17.5,11.2,17.1,10.8,16.6,10.8z"/>
	</g>
	<g>
		<path d="M15.3,23.2V22c1.3,0,2.4-1.1,2.4-2.4c0-1-0.6-1.8-1.5-2.2H16c-1.1,0-2.1-1.1-2-2.3s1-2.1,2.2-2.1l0,0c2.7,0,5,1.8,5.7,4.3
			l-1.2,1.3c0-2.6-2.4-4.4-4.5-4.4l0,0c-0.6,0-1,0.4-1,0.9s0.4,1,0.9,1c0.5,0.1,0.5,0.1,0.6,0.1c1.4,0.6,2.3,1.9,2.3,3.4
			C18.9,21.6,17.3,23.2,15.3,23.2z"/>
	</g>
</g>
</svg>
